<svg width="34" height="34" viewBox="0 0 34 34" fill="none" xmlns="http://www.w3.org/2000/svg">
<g id="Heart Add">
<path id="icon" d="M17.5667 24.3676C17.5667 28.1232 20.6111 31.1676 24.3667 31.1676C28.1222 31.1676 31.1666 28.1232 31.1666 24.3676C31.1666 20.6121 28.1222 17.5676 24.3667 17.5676M17.5667 24.3676C17.5667 20.6121 20.6111 17.5676 24.3667 17.5676M17.5667 24.3676C17.5667 26.1101 18.2325 27.6968 19.3092 28.901C18.785 29.1418 18.3033 29.3401 17.8783 29.4818C17.3966 29.6518 16.6033 29.6518 16.1217 29.4818C12.0133 28.0793 2.83331 22.2284 2.83331 12.3118C2.83331 7.93428 6.36081 4.39258 10.71 4.39258C13.2741 4.39258 15.5691 5.6393 17 7.5518C18.4308 5.6393 20.7258 4.39258 23.29 4.39258C27.6391 4.39258 31.1666 7.93428 31.1666 12.3118C31.1666 15.1026 30.4441 17.5676 29.3108 19.7067C28.0641 18.3892 26.3075 17.5676 24.3667 17.5676M26.9025 24.4526H21.8308M24.3667 21.9735V27.0592" stroke="#909090" stroke-width="2.8" stroke-linecap="round" stroke-linejoin="round"/>
</g>
</svg>
