<svg width="34" height="34" viewBox="0 0 34 34" fill="none" xmlns="http://www.w3.org/2000/svg">
<g id="Heart Add">
<path id="icon" d="M17.5667 24.3657C17.5667 28.1212 20.6111 31.1657 24.3667 31.1657C28.1222 31.1657 31.1666 28.1212 31.1666 24.3657C31.1666 20.6101 28.1222 17.5657 24.3667 17.5657M17.5667 24.3657C17.5667 20.6101 20.6111 17.5657 24.3667 17.5657M17.5667 24.3657C17.5667 26.1082 18.2325 27.6949 19.3092 28.899C18.785 29.1399 18.3033 29.3382 17.8783 29.4798C17.3966 29.6498 16.6033 29.6498 16.1217 29.4798C12.0133 28.0773 2.83331 22.2265 2.83331 12.3098C2.83331 7.93233 6.36081 4.39062 10.71 4.39062C13.2741 4.39062 15.5691 5.63735 17 7.54985C18.4308 5.63735 20.7258 4.39062 23.29 4.39062C27.6391 4.39062 31.1666 7.93233 31.1666 12.3098C31.1666 15.1007 30.4441 17.5656 29.3108 19.7048C28.0641 18.3873 26.3075 17.5657 24.3667 17.5657M26.9025 24.4507H21.8308M24.3667 21.9715V27.0573" stroke="#7171D7" stroke-width="2.8" stroke-linecap="round" stroke-linejoin="round"/>
</g>
</svg>
