<svg width="31" height="31" viewBox="0 0 31 31" fill="none" xmlns="http://www.w3.org/2000/svg">
<g id="Group">
<path id="Vector" d="M27.75 15L15 2.25L2.25 15H5.08333V24.9167C5.08333 25.6681 5.38184 26.3888 5.9132 26.9201C6.44455 27.4515 7.16522 27.75 7.91667 27.75H14.575" stroke="#7171D7" stroke-width="2.8" stroke-linecap="round" stroke-linejoin="round"/>
<path id="Vector_2" d="M10.75 27.7493V19.2493C10.75 18.4979 11.0485 17.7772 11.5799 17.2459C12.1112 16.7145 12.8319 16.416 13.5833 16.416H16.4167M26.6167 26.616L29.1667 29.166M19.25 23.4993C19.25 24.6265 19.6978 25.7075 20.4948 26.5046C21.2918 27.3016 22.3728 27.7493 23.5 27.7493C24.6272 27.7493 25.7082 27.3016 26.5052 26.5046C27.3022 25.7075 27.75 24.6265 27.75 23.4993C27.75 22.3722 27.3022 21.2912 26.5052 20.4941C25.7082 19.6971 24.6272 19.2493 23.5 19.2493C22.3728 19.2493 21.2918 19.6971 20.4948 20.4941C19.6978 21.2912 19.25 22.3722 19.25 23.4993Z" stroke="#7171D7" stroke-width="2.8" stroke-linecap="round" stroke-linejoin="round"/>
</g>
</svg>
