<svg width="31" height="29" viewBox="0 0 31 29" fill="none" xmlns="http://www.w3.org/2000/svg">
<g id="Group">
<path id="Vector" d="M15.1824 2.56352L15.182 2.56343C14.4374 2.41153 13.6634 2.33269 12.875 2.33268L15.1824 2.56352ZM15.1824 2.56352C15.4207 2.6119 15.6299 2.75294 15.7642 2.95562C15.8985 3.1583 15.9467 3.40601 15.8983 3.64427C15.8499 3.88252 15.7089 4.0918 15.5062 4.22605C15.3036 4.36027 15.056 4.40853 14.8178 4.36023C12.9367 3.97653 10.984 4.15918 9.20668 4.8851C7.42928 5.61105 5.90703 6.8477 4.8324 8.43871C3.75777 10.0297 3.17901 11.9037 3.16929 13.8236C3.15958 15.7435 3.71934 17.6232 4.77782 19.225C5.83629 20.8268 7.34594 22.0788 9.11591 22.8227C10.8859 23.5666 12.8367 23.769 14.7216 23.4043C16.6066 23.0396 18.3411 22.1241 19.7059 20.7737C21.0707 19.4234 22.0044 17.6986 22.389 15.8176L22.3892 15.8169M15.1824 2.56352L22.3892 15.8169M22.3892 15.8169C22.4131 15.699 22.4601 15.5869 22.5273 15.487C22.5946 15.3872 22.6809 15.3016 22.7813 15.2351C22.8816 15.1687 22.9941 15.1226 23.1122 15.0996C23.2304 15.0766 23.3519 15.0771 23.4699 15.101C23.5879 15.125 23.7 15.1719 23.7998 15.2392C23.8996 15.3065 23.9852 15.3928 24.0517 15.4931C24.1182 15.5935 24.1642 15.7059 24.1873 15.8241C24.2102 15.9421 24.2098 16.0634 24.1859 16.1812C23.8555 17.7991 23.1818 19.3272 22.2103 20.6624L21.9341 21.0269L21.6709 21.3742M22.3892 15.8169L21.6709 21.3742M21.6709 21.3742L21.9791 21.6824M21.6709 21.3742L21.9791 21.6824M21.9791 21.6824L27.1528 26.8561L27.1545 26.8577M21.9791 21.6824L27.1545 26.8577M27.1545 26.8577C27.3206 27.0223 27.4176 27.2442 27.4255 27.4779C27.4334 27.7116 27.3517 27.9396 27.1971 28.115C27.0425 28.2905 26.8267 28.4002 26.5938 28.4218C26.3658 28.4429 26.1383 28.3778 25.956 28.2398L25.8468 28.1422L20.683 22.9785L20.3689 22.6643M27.1545 26.8577L20.3689 22.6643M20.3689 22.6643L20.02 22.9393M20.3689 22.6643L20.02 22.9393M20.02 22.9393C18.5745 24.0785 16.8775 24.8555 15.0707 25.2054M20.02 22.9393L15.0707 25.2054M28.6419 4.92527L28.6341 4.92203C28.0132 4.66292 27.4544 4.27485 26.9947 3.78353C26.5353 3.29242 26.1853 2.70936 25.9681 2.07291C25.968 2.07262 25.9679 2.07232 25.9678 2.07203L25.7887 1.55144L25.7332 1.41613C25.6576 1.26792 25.5431 1.143 25.4017 1.05486C25.2563 0.964155 25.0883 0.916052 24.9169 0.916016L28.6419 4.92527ZM28.6419 4.92527L28.6497 4.92824M28.6419 4.92527L28.6497 4.92824M28.6497 4.92824L28.9118 5.02741L28.9195 5.03032M28.6497 4.92824L28.9195 5.03032M28.9195 5.03032L28.9273 5.03297M28.9195 5.03032L28.9273 5.03297M28.9273 5.03297L29.4628 5.21572L29.4628 5.21573M28.9273 5.03297L29.4628 5.21573M29.4628 5.21573C29.6344 5.27427 29.7848 5.38238 29.8949 5.52639L30.2921 5.22262M29.4628 5.21573L30.2921 5.22262M30.2921 5.22262L29.8949 5.52639C30.0051 5.6704 30.07 5.84383 30.0816 6.02476C30.0932 6.20569 30.0509 6.386 29.96 6.54287C29.8717 6.69522 29.7415 6.81882 29.585 6.89904L29.4486 6.95451L28.9273 7.13379C28.9272 7.13384 28.927 7.13389 28.9269 7.13394C28.2903 7.35118 27.707 7.70117 27.2158 8.16073C26.7245 8.6204 26.3364 9.1792 26.0773 9.80013L26.0741 9.80788M30.2921 5.22262L26.0741 9.80788M26.0741 9.80788L26.0711 9.81574M26.0741 9.80788L26.0711 9.81574M26.0711 9.81574L25.9719 10.0778L25.969 10.0855M26.0711 9.81574L25.969 10.0855M25.969 10.0855L25.9664 10.0933M25.969 10.0855L25.9664 10.0933M25.9664 10.0933L25.7837 10.6285C25.7251 10.8001 25.6169 10.9504 25.4728 11.0604C25.3288 11.1705 25.1553 11.2354 24.9744 11.2468C24.7934 11.2583 24.6132 11.2159 24.4564 11.1249C24.3039 11.0364 24.1802 10.9059 24.1 10.7491L24.0446 10.6139L23.8655 10.0933C23.8654 10.093 23.8654 10.0928 23.8653 10.0925C23.648 9.45602 23.2981 8.87294 22.8386 8.38184C22.3789 7.89051 21.8201 7.50244 21.1992 7.24333L21.1915 7.24009M25.9664 10.0933L21.1915 7.24009M21.1915 7.24009L21.1836 7.23712M21.1915 7.24009L21.1836 7.23712M21.1836 7.23712L20.9215 7.13796L20.9138 7.13505M21.1836 7.23712L20.9138 7.13505M20.9138 7.13505L20.9061 7.13239M20.9138 7.13505L20.9061 7.13239M20.9061 7.13239L20.3706 6.94965L20.3705 6.94963M20.9061 7.13239L20.3705 6.94963M20.3705 6.94963C20.1989 6.89109 20.0486 6.78298 19.9384 6.63898L19.5413 6.94275M20.3705 6.94963L19.5413 6.94275M19.5413 6.94275L19.9384 6.63897C19.8283 6.49497 19.7633 6.32153 19.7517 6.1406C19.7401 5.95967 19.7825 5.77937 19.8734 5.62249C19.9616 5.47015 20.0919 5.34654 20.2484 5.26632L20.3847 5.21085L20.906 5.03157C20.9062 5.03151 20.9064 5.03145 20.9065 5.03139C21.5431 4.81414 22.1263 4.46417 22.6175 4.00463C23.1088 3.54497 23.4969 2.98617 23.756 2.36524L23.7592 2.35748M19.5413 6.94275L23.7592 2.35748M23.7592 2.35748L23.7622 2.34963M23.7592 2.35748L23.7622 2.34963M23.7622 2.34963L23.8614 2.08755L23.8643 2.07986M23.7622 2.34963L23.8643 2.07986M23.8643 2.07986L23.8669 2.07209M23.8643 2.07986L23.8669 2.07209M23.8669 2.07209L24.0497 1.53659M23.8669 2.07209L24.0497 1.53659M15.0707 25.2054C13.2638 25.5554 11.3995 25.4682 9.6332 24.9511M15.0707 25.2054L9.6332 24.9511M9.6332 24.9511C7.86691 24.434 6.24988 23.502 4.91704 22.2329M9.6332 24.9511L4.91704 22.2329M4.91704 22.2329C3.58419 20.9637 2.57418 19.3942 1.97125 17.6554M4.91704 22.2329L1.97125 17.6554M1.97125 17.6554C1.36833 15.9165 1.18999 14.0587 1.45111 12.2368M1.97125 17.6554L1.45111 12.2368M1.45111 12.2368C1.71222 10.415 2.40522 8.68208 3.47229 7.18256M1.45111 12.2368L3.47229 7.18256M3.47229 7.18256C4.53936 5.68305 5.94956 4.46045 7.58523 3.61679M3.47229 7.18256L7.58523 3.61679M7.58523 3.61679C9.22088 2.77312 11.0346 2.33285 12.875 2.33268L7.58523 3.61679ZM24.0497 1.53659C24.1115 1.35563 24.2283 1.19852 24.3838 1.08724M24.0497 1.53659L24.3838 1.08724M24.3838 1.08724C24.5392 0.975999 24.7255 0.916133 24.9167 0.916016L24.3838 1.08724ZM25.3081 4.63262L24.9167 4.13998L24.5252 4.63262C24.2137 5.02459 23.8586 5.37975 23.4666 5.69122L22.9733 6.08323L23.4671 6.47456C23.86 6.78592 24.2125 7.13831 24.5249 7.53232L24.9168 8.02661L25.3085 7.53221C25.6199 7.1393 25.9723 6.78688 26.3663 6.47447L26.8599 6.08311L26.3667 5.69122C25.9748 5.37976 25.6196 5.02459 25.3081 4.63262Z" fill="#909090" stroke="#909090"/>
</g>
</svg>
