<svg width="22" height="22" viewBox="0 0 22 22" fill="none" xmlns="http://www.w3.org/2000/svg">
<g id="mage:filter">
<path id="Vector" d="M19.4792 11.0001H8.15376M4.15618 11.0001H2.52084M4.15618 11.0001C4.15618 10.4701 4.36672 9.96179 4.74148 9.58703C5.11624 9.21227 5.62452 9.00173 6.15451 9.00173C6.6845 9.00173 7.19279 9.21227 7.56755 9.58703C7.94231 9.96179 8.15284 10.4701 8.15284 11.0001C8.15284 11.5301 7.94231 12.0383 7.56755 12.4131C7.19279 12.7879 6.6845 12.9984 6.15451 12.9984C5.62452 12.9984 5.11624 12.7879 4.74148 12.4131C4.36672 12.0383 4.15618 11.5301 4.15618 11.0001ZM19.4792 17.0565H14.2102M14.2102 17.0565C14.2102 17.5866 13.9991 18.0954 13.6243 18.4703C13.2494 18.8451 12.741 19.0557 12.2109 19.0557C11.6809 19.0557 11.1727 18.8443 10.7979 18.4695C10.4231 18.0948 10.2126 17.5865 10.2126 17.0565M14.2102 17.0565C14.2102 16.5264 13.9991 16.0184 13.6243 15.6436C13.2494 15.2687 12.741 15.0581 12.2109 15.0581C11.6809 15.0581 11.1727 15.2687 10.7979 15.6434C10.4231 16.0182 10.2126 16.5265 10.2126 17.0565M10.2126 17.0565H2.52084M19.4792 4.94365H16.6329M12.6353 4.94365H2.52084M12.6353 4.94365C12.6353 4.41365 12.8459 3.90537 13.2206 3.53061C13.5954 3.15585 14.1037 2.94531 14.6337 2.94531C14.8961 2.94531 15.156 2.997 15.3984 3.09743C15.6409 3.19785 15.8612 3.34505 16.0467 3.53061C16.2323 3.71617 16.3795 3.93647 16.4799 4.17892C16.5803 4.42137 16.632 4.68122 16.632 4.94365C16.632 5.20607 16.5803 5.46593 16.4799 5.70837C16.3795 5.95082 16.2323 6.17112 16.0467 6.35668C15.8612 6.54224 15.6409 6.68944 15.3984 6.78987C15.156 6.89029 14.8961 6.94198 14.6337 6.94198C14.1037 6.94198 13.5954 6.73144 13.2206 6.35668C12.8459 5.98192 12.6353 5.47364 12.6353 4.94365Z" stroke="#7171D7" stroke-width="1.5" stroke-miterlimit="10" stroke-linecap="round"/>
</g>
</svg>
